<svg xmlns="http://www.w3.org/2000/svg" version="1.1" xmlns:xlink="http://www.w3.org/1999/xlink" xmlns:svgjs="http://svgjs.dev/svgjs" viewBox="0 0 1920 1080"><rect width="1920" height="1080" fill="#000000"></rect><g transform="matrix(0.5750000000000001,0.9959292143521044,-0.9959292143521044,0.5750000000000001,941.1186143960714,-715.6176994061659)"><path d="M0,-1080C1.3093066455564895,-977.4565568725131,11.376955766982988,-685.585102386299,7.855839873338937,-464.7393412350791C4.3347239796948855,-243.8935800838592,-27.810853349610014,15.881822486414677,-21.126695361864307,245.07456690731937C-14.4425373741186,474.2673113282241,37.21845294666662,694.6513784183987,47.960787799813176,910.4171252903492C58.70312265295973,1126.1828721622996,51.320778390317216,1331.4052356874138,43.32731375701502,1539.6690481390222C35.333849123712824,1747.9328605906305,7.221218959502504,2056.6115080231702,0,2160L 1920 2160 L 1920 -1080 Z" fill="url(&quot;#SvgjsLinearGradient1316&quot;)"></path><path d="M174.54545454545456,-1080C168.36381495855983,-999.9974597602285,139.19122038957056,-745.4381717022676,137.45561702408617,-599.9847585613707C135.72001365860177,-454.5313454204737,167.68783397386795,-354.75894107322097,164.13183435254822,-207.2795211546181C160.5758347312285,-59.80010123601525,116.26261141242101,117.92550538272602,116.11961929616771,284.8917609502464C115.97662717991442,451.8580165177668,147.6101916221756,628.8595069659641,163.27388165502845,794.5180122505043C178.9375716878813,960.1765175350445,208.68213467251542,1129.8182154849865,210.1017594932849,1278.8427926574873C211.5213843140544,1427.867369829988,177.71768140428378,1541.8059407284243,171.79163057964539,1688.6654752855097C165.865579755007,1835.5250098425952,174.08648388448637,2081.444245880918,174.54545454545456,2160L 1920 2160 L 1920 -1080 Z" fill="url(&quot;#SvgjsLinearGradient1317&quot;)"></path><path d="M349.0909090909091,-1080C352.9877870601576,-974.1228242879287,371.18793801981457,-651.2375812713335,372.4721769063999,-444.736945727572C373.75641579298525,-238.23631018381047,353.02849576571913,-55.33692568019379,356.79634241042123,159.0038132625692C360.56418905512334,373.3445522053322,394.85734863954673,606.6109896254702,395.0792567746124,841.3074879290059C395.3011649096781,1076.0039862325416,365.792515834766,1347.4007177386175,358.1277912208154,1567.1828030837833C350.46306660686486,1786.964888428949,350.59705611256015,2061.197133847297,349.0909090909091,2160L 1920 2160 L 1920 -1080 Z" fill="url(&quot;#SvgjsLinearGradient1318&quot;)"></path><path d="M523.6363636363636,-1080C521.688070683505,-977.4861652362117,508.08511001819846,-681.3753351415352,511.9466059192117,-464.9169914172704C515.8081018202249,-248.45864769300564,552.9316203534881,1.1290404579595759,546.8053390424432,218.7500623455888C540.6790577313982,436.37108423321797,486.4789738098235,621.2863489745945,475.18891805294163,840.8091399085048C463.89886229605975,1060.3319308424152,470.99043023724806,1316.021664600468,479.06500450115175,1535.8868079490505C487.13957876505543,1755.751951297633,516.2078037804949,2055.981134658175,523.6363636363636,2160L 1920 2160 L 1920 -1080 Z" fill="url(&quot;#SvgjsLinearGradient1319&quot;)"></path><path d="M698.1818181818182,-1080C706.6375972651816,-994.2559122632173,759.1375653875592,-738.859756924018,748.9164926819985,-565.5354735793037C738.6954199764378,-392.21119023458937,640.790926322723,-221.56129245806673,636.855381948454,-40.05429993171401C632.9198375741851,141.4526925946387,705.6059215940717,345.14769328508396,725.3032264363849,523.5064815788126C745.0005312786981,701.8652698725411,758.9779321923965,839.5703244055956,755.0392110023333,1030.0984298306573C751.1004898122702,1220.626535255719,711.1471314327587,1478.3581857676259,701.6708992960062,1666.675114129183C692.1946671592536,1854.99204249074,698.7633317008496,2077.7791856881972,698.1818181818182,2160L 1920 2160 L 1920 -1080 Z" fill="url(&quot;#SvgjsLinearGradient1320&quot;)"></path><path d="M872.7272727272727,-1080C876.422292253804,-952.3051742682188,901.5051939791535,-588.9738771467433,894.89738988646,-313.8310456093132C888.2895857937665,-38.68821407188307,839.6572303570754,295.0168225921678,833.0804481711116,570.8569892245808C826.5036659851478,846.697155856994,848.8288926779837,1076.3527857225954,855.4366967706773,1341.2099541851653C862.0445008633708,1606.0671226477352,869.8455100678402,2023.5349923641943,872.7272727272727,2160L 1920 2160 L 1920 -1080 Z" fill="url(&quot;#SvgjsLinearGradient1321&quot;)"></path><path d="M1047.2727272727273,-1080C1037.0261602592554,-976.6825806199851,976.2840994970503,-678.2559761027801,985.7933251918963,-460.0954837199102C995.3025508867423,-241.93499133704034,1096.3006584678228,18.893128537888884,1104.3280814418033,228.962954297219C1112.3555044157838,439.0327800565491,1040.051457624824,582.6490657964821,1033.9578630357794,800.3234708360706C1027.8642684467347,1017.997875875659,1065.5473698680446,1308.3966296740948,1067.766513907536,1535.0093845347496C1069.9856579470272,1761.6221393954045,1050.6883583785286,2055.834897422458,1047.2727272727273,2160L 1920 2160 L 1920 -1080 Z" fill="url(&quot;#SvgjsLinearGradient1322&quot;)"></path><path d="M1221.8181818181818,-1080C1218.9005339313173,-993.9909367875829,1207.5208187251005,-718.9052196717556,1204.3122944969957,-563.9456207254973C1201.103770268891,-408.98602177923897,1209.6641315060076,-297.18958155998837,1202.5670364495531,-150.2424063224503C1195.4699413930987,-3.295231084912274,1153.315152434998,162.09735780623217,1161.7297241582694,317.7374306997309C1170.1442958815408,473.3775035932297,1235.4168855340558,632.624816631944,1253.0544667891818,783.5980310385421C1270.6920480443077,934.5712454451402,1282.4169325509988,1079.4994665387235,1267.5552116890246,1223.57671713932C1252.6934908270505,1367.6539677399164,1171.5069799291434,1491.9909874986736,1163.8841416173364,1648.0615346421203C1156.2613033055293,1804.132081785567,1212.1625084513742,2074.6769224403533,1221.8181818181818,2160L 1920 2160 L 1920 -1080 Z" fill="url(&quot;#SvgjsLinearGradient1323&quot;)"></path><path d="M1396.3636363636365,-1080C1397.615720456365,-938.2974691588236,1403.0570317311426,-505.17898405508026,1403.8761409200072,-229.78481495294133C1404.6952501088717,45.60935414919763,1409.4439208364436,318.1653517549571,1401.2782914968238,572.3650146128338C1393.112662157204,826.5646774707104,1355.701474071153,1030.8073312964575,1354.8823648822884,1295.4131621943186C1354.0632556934238,1560.0189930921797,1389.4500911167452,2015.902193699053,1396.3636363636365,2160L 1920 2160 L 1920 -1080 Z" fill="url(&quot;#SvgjsLinearGradient1324&quot;)"></path><path d="M1570.909090909091,-1080C1565.7435804816619,-1000.9687175477733,1538.6672812109052,-763.0210586438694,1539.9160283445162,-605.8123052866398C1541.1647754781272,-448.6035519294102,1582.2530126375214,-299.51123738911247,1578.401573710757,-136.7474798566225C1574.5501347839927,26.016277675867485,1524.9000400306652,223.88815905585673,1516.8073947839298,370.77023990830014C1508.7147495371944,517.6523207607436,1525.478270732047,599.9846372891876,1529.8457022303442,744.5450052580379C1534.2131337286414,889.1053732268882,1543.2219011359473,1076.710112360841,1543.011983773713,1238.132447721402C1542.8020664114786,1399.554783081963,1523.936680201041,1559.4344253749712,1528.5861980569375,1713.0790174214042C1533.235715912834,1866.7236094678372,1563.855275433732,2085.513169570234,1570.909090909091,2160L 1920 2160 L 1920 -1080 Z" fill="url(&quot;#SvgjsLinearGradient1325&quot;)"></path><path d="M1745.4545454545455,-1080C1739.6110894271583,-994.5259093153722,1715.6062670947008,-742.1806260253107,1710.3938092902215,-567.1554558922335C1705.1813514857422,-392.1302857591562,1712.4664764347076,-209.79464575596674,1714.1797986276697,-29.84897920153665C1715.8931208206318,150.09668735289344,1720.6994304085422,327.56784161110147,1720.6737424479948,512.5185434343471C1720.6480544874473,697.4692452575927,1702.6060754777686,896.6570111228637,1714.0256708643853,1079.8552317379372C1725.445266251002,1263.0534523530107,1783.9531690026688,1431.683739081111,1789.1913147676955,1611.7078671247882C1794.4294605327223,1791.7319951684653,1752.744007006737,2068.6179778541314,1745.4545454545455,2160L 1920 2160 L 1920 -1080 Z" fill="url(&quot;#SvgjsLinearGradient1326&quot;)"></path></g><defs><linearGradient x1="0.1" y1="0" x2="0" y2="1" id="SvgjsLinearGradient1316"><stop stop-color="#000000" offset="0"></stop><stop stop-color="#000000" offset="0"></stop></linearGradient><linearGradient x1="0.1" y1="0" x2="0" y2="1" id="SvgjsLinearGradient1317"><stop stop-color="#171717" offset="0"></stop><stop stop-color="#171717" offset="0.09090909090909091"></stop></linearGradient><linearGradient x1="0.1" y1="0" x2="0" y2="1" id="SvgjsLinearGradient1318"><stop stop-color="#2e2e2e" offset="0"></stop><stop stop-color="#2e2e2e" offset="0.18181818181818182"></stop></linearGradient><linearGradient x1="0.1" y1="0" x2="0" y2="1" id="SvgjsLinearGradient1319"><stop stop-color="#464646" offset="0"></stop><stop stop-color="#464646" offset="0.2727272727272727"></stop></linearGradient><linearGradient x1="0.1" y1="0" x2="0" y2="1" id="SvgjsLinearGradient1320"><stop stop-color="#5d5d5d" offset="0"></stop><stop stop-color="#5d5d5d" offset="0.36363636363636365"></stop></linearGradient><linearGradient x1="0.1" y1="0" x2="0" y2="1" id="SvgjsLinearGradient1321"><stop stop-color="#747474" offset="0"></stop><stop stop-color="#747474" offset="0.45454545454545453"></stop></linearGradient><linearGradient x1="0.1" y1="0" x2="0" y2="1" id="SvgjsLinearGradient1322"><stop stop-color="#8b8b8b" offset="0"></stop><stop stop-color="#8b8b8b" offset="0.5454545454545454"></stop></linearGradient><linearGradient x1="0.1" y1="0" x2="0" y2="1" id="SvgjsLinearGradient1323"><stop stop-color="#a2a2a2" offset="0"></stop><stop stop-color="#a2a2a2" offset="0.6363636363636364"></stop></linearGradient><linearGradient x1="0.1" y1="0" x2="0" y2="1" id="SvgjsLinearGradient1324"><stop stop-color="#b9b9b9" offset="0"></stop><stop stop-color="#b9b9b9" offset="0.7272727272727273"></stop></linearGradient><linearGradient x1="0.1" y1="0" x2="0" y2="1" id="SvgjsLinearGradient1325"><stop stop-color="#d1d1d1" offset="0"></stop><stop stop-color="#d1d1d1" offset="0.8181818181818182"></stop></linearGradient><linearGradient x1="0.1" y1="0" x2="0" y2="1" id="SvgjsLinearGradient1326"><stop stop-color="#e8e8e8" offset="0"></stop><stop stop-color="#e8e8e8" offset="0.9090909090909091"></stop></linearGradient></defs></svg>